<?xml version="1.0" encoding="UTF-8" standalone="no"?>
<!DOCTYPE svg PUBLIC "-//W3C//DTD SVG 1.1//EN" "http://www.w3.org/Graphics/SVG/1.1/DTD/svg11.dtd">
<!-- Created with Vectornator (http://vectornator.io/) -->
<svg height="100%" stroke-miterlimit="10" style="fill-rule:nonzero;clip-rule:evenodd;stroke-linecap:round;stroke-linejoin:round;" version="1.1" viewBox="0 0 4000 4000" width="100%" xml:space="preserve" xmlns="http://www.w3.org/2000/svg" xmlns:vectornator="http://vectornator.io" xmlns:xlink="http://www.w3.org/1999/xlink">
<defs>
<path d="M1108.38 2422.94L1108.38 2486.84L1111.31 2486.84L1111.31 2635.23C1111.31 2649.44 1112.75 2672.23 1114.53 2686.14L1123.81 2758.71C1125.59 2772.61 1128.48 2772.61 1130.26 2758.71L1139.55 2686.14C1141.33 2672.23 1142.77 2649.44 1142.77 2635.23L1142.77 2486.84L1146.51 2486.84L1146.51 2422.94L1142.77 2422.94L1111.31 2422.94L1108.38 2422.94Z" id="Fill"/>
<path d="M1783.69 2627.87L1783.69 2628.26C1783.69 2638.33 1826.22 2732.63 1826.22 2732.63C1830.63 2741.57 1837.79 2741.57 1842.21 2732.63C1842.21 2732.63 1884.74 2638.33 1884.74 2628.26L1884.74 2627.87L1884.74 2570.4C1884.74 2566.04 1881.38 2562.5 1877.23 2562.5L1791.2 2562.5C1787.05 2562.5 1783.69 2566.04 1783.69 2570.4L1783.69 2627.87Z" id="Fill_2"/>
<path d="M2065.66 2627.87L2065.66 2628.26C2065.66 2638.33 2108.2 2732.63 2108.2 2732.63C2112.61 2741.57 2119.77 2741.57 2124.19 2732.63C2124.19 2732.63 2166.72 2638.33 2166.72 2628.26L2166.72 2627.87L2166.72 2570.4C2166.72 2566.04 2163.35 2562.5 2159.2 2562.5L2073.18 2562.5C2069.03 2562.5 2065.66 2566.04 2065.66 2570.4L2065.66 2627.87Z" id="Fill_3"/>
</defs>
<g id="Layer-1" vectornator:layerName="Layer 1">
<g opacity="1">
<path d="M563.943 1371.85L3508.33 1371.85L3508.33 2887.44L563.943 2887.44L563.943 1371.85Z" fill="#6f3a1a" fill-rule="nonzero" opacity="1" stroke="none"/>
<path d="M357.003 2829.89L3734.1 2829.89L3734.1 3055.22L357.003 3055.22L357.003 2829.89Z" fill="#9d521b" fill-rule="nonzero" opacity="1" stroke="none"/>
<g opacity="1">
<path d="M1041.39 1846.84L1082.5 1846.84C1097.78 1846.84 1110.16 1863.04 1110.16 1883.03L1110.16 2326.61C1110.16 2346.6 1097.78 2362.81 1082.5 2362.81L1041.39 2362.81C1026.12 2362.81 1013.74 2346.6 1013.74 2326.61L1013.74 1883.03C1013.74 1863.04 1026.12 1846.84 1041.39 1846.84Z" fill="#002748" fill-rule="nonzero" opacity="1" stroke="none"/>
<path d="M1016.1 1400.29C964.596 1400.29 922.851 1436.59 922.851 1481.38L922.851 1511.46L922.851 1838.84C922.851 1883.63 964.596 1919.92 1016.1 1919.92L1165.58 1919.92C1185.54 1919.92 1205.51 1905.15 1220.74 1875.58L1384.08 1523.06C1398.34 1492.29 1385.92 1449.82 1356.35 1428.21L1355.53 1427.61C1334.88 1412.52 1296 1400.29 1268.7 1400.29L1016.1 1400.29Z" fill="#002748" fill-rule="nonzero" opacity="1" stroke="none"/>
</g>
<path d="M357.003 1287.62L3734.1 1287.62L3734.1 1512.95L357.003 1512.95L357.003 1287.62Z" fill="#9d521b" fill-rule="nonzero" opacity="1" stroke="none"/>
<path d="M630.815 1323.46L630.815 2911.17L478.99 2911.17L478.99 1323.46L630.815 1323.46Z" fill="#9d521b" fill-rule="nonzero" opacity="1" stroke="none"/>
<path d="M3605.35 1323.46L3605.35 2911.17L3453.53 2911.17L3453.53 1323.46L3605.35 1323.46Z" fill="#9d521b" fill-rule="nonzero" opacity="1" stroke="none"/>
</g>
<g opacity="1">
<path d="M630.822 2485.81L1222.84 2485.81L1222.84 2829.89L630.822 2829.89L630.822 2485.81Z" fill="#b1935d" fill-rule="nonzero" opacity="1" stroke="none"/>
<g opacity="1">
<path d="M732.677 2422.94L732.677 2486.84L735.61 2486.84L735.61 2635.23C735.61 2649.44 737.054 2672.23 738.833 2686.14L748.114 2758.71C749.893 2772.61 752.781 2772.61 754.561 2758.71L763.849 2686.14C765.629 2672.23 767.072 2649.44 767.072 2635.23L767.072 2486.84L770.809 2486.84L770.809 2422.94L767.072 2422.94L735.61 2422.94L732.677 2422.94Z" fill="#058785" fill-rule="nonzero" opacity="1" stroke="none"/>
<path d="M782.83 2422.94L782.83 2486.84L785.762 2486.84L785.762 2635.23C785.762 2649.44 787.207 2672.23 788.986 2686.14L798.267 2758.71C800.046 2772.61 802.934 2772.61 804.714 2758.71L814.002 2686.14C815.782 2672.23 817.225 2649.44 817.225 2635.23L817.225 2486.84L820.961 2486.84L820.961 2422.94L817.225 2422.94L785.762 2422.94L782.83 2422.94Z" fill="#058785" fill-rule="nonzero" opacity="1" stroke="none"/>
<path d="M832.983 2422.94L832.983 2486.84L835.915 2486.84L835.915 2635.23C835.915 2649.44 837.359 2672.23 839.138 2686.14L848.42 2758.71C850.199 2772.61 853.087 2772.61 854.866 2758.71L864.155 2686.14C865.935 2672.23 867.378 2649.44 867.378 2635.23L867.378 2486.84L871.114 2486.84L871.114 2422.94L867.378 2422.94L835.915 2422.94L832.983 2422.94Z" fill="#058785" fill-rule="nonzero" opacity="1" stroke="none"/>
<path d="M883.136 2422.94L883.136 2486.84L886.068 2486.84L886.068 2635.23C886.068 2649.44 887.512 2672.23 889.291 2686.14L898.573 2758.71C900.352 2772.61 903.239 2772.61 905.019 2758.71L914.308 2686.14C916.087 2672.23 917.531 2649.44 917.531 2635.23L917.531 2486.84L921.267 2486.84L921.267 2422.94L917.531 2422.94L886.068 2422.94L883.136 2422.94Z" fill="#058785" fill-rule="nonzero" opacity="1" stroke="none"/>
<path d="M933.289 2422.94L933.289 2486.84L936.221 2486.84L936.221 2635.23C936.221 2649.44 937.665 2672.23 939.444 2686.14L948.726 2758.71C950.505 2772.61 953.392 2772.61 955.172 2758.71L964.46 2686.14C966.24 2672.23 967.684 2649.44 967.684 2635.23L967.684 2486.84L971.42 2486.84L971.42 2422.94L967.684 2422.94L936.221 2422.94L933.289 2422.94Z" fill="#058785" fill-rule="nonzero" opacity="1" stroke="none"/>
<path d="M983.441 2422.94L983.441 2486.84L986.374 2486.84L986.374 2635.23C986.374 2649.44 987.818 2672.23 989.597 2686.14L998.878 2758.71C1000.66 2772.61 1003.55 2772.61 1005.32 2758.71L1014.61 2686.14C1016.39 2672.23 1017.84 2649.44 1017.84 2635.23L1017.84 2486.84L1021.57 2486.84L1021.57 2422.94L1017.84 2422.94L986.374 2422.94L983.441 2422.94Z" fill="#058785" fill-rule="nonzero" opacity="1" stroke="none"/>
<path d="M1033.59 2422.94L1033.59 2486.84L1036.53 2486.84L1036.53 2635.23C1036.53 2649.44 1037.97 2672.23 1039.75 2686.14L1049.03 2758.71C1050.81 2772.61 1053.7 2772.61 1055.48 2758.71L1064.77 2686.14C1066.55 2672.23 1067.99 2649.44 1067.99 2635.23L1067.99 2486.84L1071.73 2486.84L1071.73 2422.94L1067.99 2422.94L1036.53 2422.94L1033.59 2422.94Z" fill="#058785" fill-rule="nonzero" opacity="1" stroke="none"/>
<path d="M1083.75 2422.94L1083.75 2486.84L1086.68 2486.84L1086.68 2635.23C1086.68 2649.44 1088.12 2672.23 1089.9 2686.14L1099.18 2758.71C1100.96 2772.61 1103.85 2772.61 1105.63 2758.71L1114.92 2686.14C1116.7 2672.23 1118.14 2649.44 1118.14 2635.23L1118.14 2486.84L1121.88 2486.84L1121.88 2422.94L1118.14 2422.94L1086.68 2422.94L1083.75 2422.94Z" fill="#058785" fill-rule="nonzero" opacity="1" stroke="none"/>
<path d="M1133.9 2422.94L1133.9 2486.84L1136.83 2486.84L1136.83 2635.23C1136.83 2649.44 1138.28 2672.23 1140.06 2686.14L1149.34 2758.71C1151.12 2772.61 1154 2772.61 1155.78 2758.71L1165.07 2686.14C1166.85 2672.23 1168.29 2649.44 1168.29 2635.23L1168.29 2486.84L1172.03 2486.84L1172.03 2422.94L1168.29 2422.94L1136.83 2422.94L1133.9 2422.94Z" fill="#058785" fill-rule="nonzero" opacity="1" stroke="none"/>
</g>
<g opacity="1">
<path d="M707.154 2422.94L707.154 2486.84L710.086 2486.84L710.086 2635.23C710.086 2649.44 711.53 2672.23 713.309 2686.14L722.591 2758.71C724.37 2772.61 727.258 2772.61 729.037 2758.71L738.326 2686.14C740.106 2672.23 741.549 2649.44 741.549 2635.23L741.549 2486.84L745.285 2486.84L745.285 2422.94L741.549 2422.94L710.086 2422.94L707.154 2422.94Z" fill="#7cc9bf" fill-rule="nonzero" opacity="1" stroke="none"/>
<path d="M757.307 2422.94L757.307 2486.84L760.239 2486.84L760.239 2635.23C760.239 2649.44 761.683 2672.23 763.462 2686.14L772.744 2758.71C774.523 2772.61 777.41 2772.61 779.19 2758.71L788.479 2686.14C790.258 2672.23 791.702 2649.44 791.702 2635.23L791.702 2486.84L795.438 2486.84L795.438 2422.94L791.702 2422.94L760.239 2422.94L757.307 2422.94Z" fill="#7cc9bf" fill-rule="nonzero" opacity="1" stroke="none"/>
<path d="M807.46 2422.94L807.46 2486.84L810.392 2486.84L810.392 2635.23C810.392 2649.44 811.836 2672.23 813.615 2686.14L822.897 2758.71C824.676 2772.61 827.563 2772.61 829.343 2758.71L838.631 2686.14C840.411 2672.23 841.855 2649.44 841.855 2635.23L841.855 2486.84L845.591 2486.84L845.591 2422.94L841.855 2422.94L810.392 2422.94L807.46 2422.94Z" fill="#7cc9bf" fill-rule="nonzero" opacity="1" stroke="none"/>
<path d="M857.612 2422.94L857.612 2486.84L860.545 2486.84L860.545 2635.23C860.545 2649.44 861.989 2672.23 863.768 2686.14L873.049 2758.71C874.828 2772.61 877.716 2772.61 879.496 2758.71L888.784 2686.14C890.564 2672.23 892.007 2649.44 892.007 2635.23L892.007 2486.84L895.744 2486.84L895.744 2422.94L892.007 2422.94L860.545 2422.94L857.612 2422.94Z" fill="#7cc9bf" fill-rule="nonzero" opacity="1" stroke="none"/>
<path d="M907.765 2422.94L907.765 2486.84L910.697 2486.84L910.697 2635.23C910.697 2649.44 912.142 2672.23 913.921 2686.14L923.202 2758.71C924.981 2772.61 927.869 2772.61 929.649 2758.71L938.937 2686.14C940.717 2672.23 942.16 2649.44 942.16 2635.23L942.16 2486.84L945.896 2486.84L945.896 2422.94L942.16 2422.94L910.697 2422.94L907.765 2422.94Z" fill="#7cc9bf" fill-rule="nonzero" opacity="1" stroke="none"/>
<path d="M957.918 2422.94L957.918 2486.84L960.85 2486.84L960.85 2635.23C960.85 2649.44 962.294 2672.23 964.073 2686.14L973.355 2758.71C975.134 2772.61 978.022 2772.61 979.801 2758.71L989.09 2686.14C990.87 2672.23 992.313 2649.44 992.313 2635.23L992.313 2486.84L996.049 2486.84L996.049 2422.94L992.313 2422.94L960.85 2422.94L957.918 2422.94Z" fill="#7cc9bf" fill-rule="nonzero" opacity="1" stroke="none"/>
<path d="M1008.07 2422.94L1008.07 2486.84L1011 2486.84L1011 2635.23C1011 2649.44 1012.45 2672.23 1014.23 2686.14L1023.51 2758.71C1025.29 2772.61 1028.17 2772.61 1029.95 2758.71L1039.24 2686.14C1041.02 2672.23 1042.47 2649.44 1042.47 2635.23L1042.47 2486.84L1046.2 2486.84L1046.2 2422.94L1042.47 2422.94L1011 2422.94L1008.07 2422.94Z" fill="#7cc9bf" fill-rule="nonzero" opacity="1" stroke="none"/>
<path d="M1058.22 2422.94L1058.22 2486.84L1061.16 2486.84L1061.16 2635.23C1061.16 2649.44 1062.6 2672.23 1064.38 2686.14L1073.66 2758.71C1075.44 2772.61 1078.33 2772.61 1080.11 2758.71L1089.4 2686.14C1091.18 2672.23 1092.62 2649.44 1092.62 2635.23L1092.62 2486.84L1096.35 2486.84L1096.35 2422.94L1092.62 2422.94L1061.16 2422.94L1058.22 2422.94Z" fill="#7cc9bf" fill-rule="nonzero" opacity="1" stroke="none"/>
</g>
<g opacity="1">
<use fill="#7cc9bf" fill-rule="nonzero" opacity="1" stroke="none" xlink:href="#Fill"/>
<clipPath id="ClipPath">
<use xlink:href="#Fill"/>
</clipPath>
<g clip-path="url(#ClipPath)">
<path d="M1095.34 2675.57L1172.04 2675.57L1172.04 2883.81L1095.34 2883.81L1095.34 2675.57Z" fill="#c94d8d" fill-rule="nonzero" opacity="1" stroke="none"/>
</g>
</g>
<path d="M630.815 2485.81L630.815 2829.89L1222.85 2829.89L1222.85 2485.81L630.815 2485.81ZM709.284 2538.75L1182.28 2538.75L1182.28 2784.39L709.284 2784.39L709.284 2538.75Z" fill="#bda27c" fill-rule="nonzero" opacity="1" stroke="none"/>
</g>
<g opacity="1">
<path d="M1863.35 2739.34L1962.33 2739.34L1962.33 2829.89L1863.35 2829.89L1863.35 2739.34Z" fill="#c9b09a" fill-rule="nonzero" opacity="1" stroke="none"/>
<path d="M1270.6 2739.34L1369.58 2739.34L1369.58 2829.89L1270.6 2829.89L1270.6 2739.34Z" fill="#c9b09a" fill-rule="nonzero" opacity="1" stroke="none"/>
<path d="M1320.09 2583.53L1897.66 2583.53L1897.66 2760.37L1320.09 2760.37L1320.09 2583.53Z" fill="#7cc9bf" fill-rule="nonzero" opacity="1" stroke="none"/>
<g opacity="1">
<path d="M1330.73 2627.87L1330.73 2628.26C1330.73 2638.33 1373.26 2732.63 1373.26 2732.63C1377.68 2741.57 1384.84 2741.57 1389.25 2732.63C1389.25 2732.63 1431.78 2638.33 1431.78 2628.26L1431.78 2627.87L1431.78 2570.4C1431.78 2566.04 1428.42 2562.5 1424.27 2562.5L1338.25 2562.5C1334.1 2562.5 1330.73 2566.04 1330.73 2570.4L1330.73 2627.87Z" fill="#517968" fill-rule="nonzero" opacity="1" stroke="none"/>
<path d="M1443.97 2627.87L1443.97 2628.26C1443.97 2638.33 1486.5 2732.63 1486.5 2732.63C1490.92 2741.57 1498.08 2741.57 1502.49 2732.63C1502.49 2732.63 1545.02 2638.33 1545.02 2628.26L1545.02 2627.87L1545.02 2570.4C1545.02 2566.04 1541.66 2562.5 1537.51 2562.5L1451.49 2562.5C1447.34 2562.5 1443.97 2566.04 1443.97 2570.4L1443.97 2627.87Z" fill="#517968" fill-rule="nonzero" opacity="1" stroke="none"/>
<path d="M1557.21 2627.87L1557.21 2628.26C1557.21 2638.33 1599.74 2732.63 1599.74 2732.63C1604.16 2741.57 1611.31 2741.57 1615.73 2732.63C1615.73 2732.63 1658.26 2638.33 1658.26 2628.26L1658.26 2627.87L1658.26 2570.4C1658.26 2566.04 1654.9 2562.5 1650.75 2562.5L1564.72 2562.5C1560.57 2562.5 1557.21 2566.04 1557.21 2570.4L1557.21 2627.87Z" fill="#517968" fill-rule="nonzero" opacity="1" stroke="none"/>
<path d="M1670.45 2627.87L1670.45 2628.26C1670.45 2638.33 1712.98 2732.63 1712.98 2732.63C1717.4 2741.57 1724.55 2741.57 1728.97 2732.63C1728.97 2732.63 1771.5 2638.33 1771.5 2628.26L1771.5 2627.87L1771.5 2570.4C1771.5 2566.04 1768.14 2562.5 1763.99 2562.5L1677.96 2562.5C1673.81 2562.5 1670.45 2566.04 1670.45 2570.4L1670.45 2627.87Z" fill="#517968" fill-rule="nonzero" opacity="1" stroke="none"/>
<path d="M1783.69 2627.87L1783.69 2628.26C1783.69 2638.33 1826.22 2732.63 1826.22 2732.63C1830.63 2741.57 1837.79 2741.57 1842.21 2732.63C1842.21 2732.63 1884.74 2638.33 1884.74 2628.26L1884.74 2627.87L1884.74 2570.4C1884.74 2566.04 1881.38 2562.5 1877.23 2562.5L1791.2 2562.5C1787.05 2562.5 1783.69 2566.04 1783.69 2570.4L1783.69 2627.87Z" fill="#517968" fill-rule="nonzero" opacity="1" stroke="none"/>
</g>
</g>
<g opacity="1">
<path d="M2598.28 2739.34L2697.27 2739.34L2697.27 2829.89L2598.28 2829.89L2598.28 2739.34Z" fill="#c9b09a" fill-rule="nonzero" opacity="1" stroke="none"/>
<path d="M2005.53 2739.34L2104.51 2739.34L2104.51 2829.89L2005.53 2829.89L2005.53 2739.34Z" fill="#c9b09a" fill-rule="nonzero" opacity="1" stroke="none"/>
<path d="M2055.02 2583.53L2632.59 2583.53L2632.59 2760.37L2055.02 2760.37L2055.02 2583.53Z" fill="#7cc9bf" fill-rule="nonzero" opacity="1" stroke="none"/>
<g opacity="1">
<path d="M2065.66 2627.87L2065.66 2628.26C2065.66 2638.33 2108.2 2732.63 2108.2 2732.63C2112.61 2741.57 2119.77 2741.57 2124.19 2732.63C2124.19 2732.63 2166.72 2638.33 2166.72 2628.26L2166.72 2627.87L2166.72 2570.4C2166.72 2566.04 2163.35 2562.5 2159.2 2562.5L2073.18 2562.5C2069.03 2562.5 2065.66 2566.04 2065.66 2570.4L2065.66 2627.87Z" fill="#517968" fill-rule="nonzero" opacity="1" stroke="none"/>
<path d="M2178.9 2627.87L2178.9 2628.26C2178.9 2638.33 2221.43 2732.63 2221.43 2732.63C2225.85 2741.57 2233.01 2741.57 2237.42 2732.63C2237.42 2732.63 2279.96 2638.33 2279.96 2628.26L2279.96 2627.87L2279.96 2570.4C2279.96 2566.04 2276.59 2562.5 2272.44 2562.5L2186.42 2562.5C2182.27 2562.5 2178.9 2566.04 2178.9 2570.4L2178.9 2627.87Z" fill="#517968" fill-rule="nonzero" opacity="1" stroke="none"/>
<path d="M2292.14 2627.87L2292.14 2628.26C2292.14 2638.33 2334.67 2732.63 2334.67 2732.63C2339.09 2741.57 2346.25 2741.57 2350.66 2732.63C2350.66 2732.63 2393.2 2638.33 2393.2 2628.26L2393.2 2627.87L2393.2 2570.4C2393.2 2566.04 2389.83 2562.5 2385.68 2562.5L2299.66 2562.5C2295.51 2562.5 2292.14 2566.04 2292.14 2570.4L2292.14 2627.87Z" fill="#517968" fill-rule="nonzero" opacity="1" stroke="none"/>
<path d="M2405.38 2627.87L2405.38 2628.26C2405.38 2638.33 2447.91 2732.63 2447.91 2732.63C2452.33 2741.57 2459.49 2741.57 2463.9 2732.63C2463.9 2732.63 2506.43 2638.33 2506.43 2628.26L2506.43 2627.87L2506.43 2570.4C2506.43 2566.04 2503.07 2562.5 2498.92 2562.5L2412.9 2562.5C2408.75 2562.5 2405.38 2566.04 2405.38 2570.4L2405.38 2627.87Z" fill="#517968" fill-rule="nonzero" opacity="1" stroke="none"/>
<path d="M2518.62 2627.87L2518.62 2628.26C2518.62 2638.33 2561.15 2732.63 2561.15 2732.63C2565.57 2741.57 2572.73 2741.57 2577.14 2732.63C2577.14 2732.63 2619.67 2638.33 2619.67 2628.26L2619.67 2627.87L2619.67 2570.4C2619.67 2566.04 2616.31 2562.5 2612.16 2562.5L2526.14 2562.5C2521.99 2562.5 2518.62 2566.04 2518.62 2570.4L2518.62 2627.87Z" fill="#517968" fill-rule="nonzero" opacity="1" stroke="none"/>
</g>
</g>
<path d="M2779.8 2435.47L2779.8 2489.73L2744.72 2489.73L2744.72 2603.16L2779.8 2603.16L2779.8 2829.89L2871.18 2829.89L2871.18 2580L2947.13 2580L2947.13 2829.89L3399.15 2829.89L3399.15 2435.47L2947.13 2435.47L2947.13 2531.13L2871.18 2531.13L2871.18 2435.47L2779.8 2435.47Z" fill="#c9b09a" fill-rule="nonzero" opacity="1" stroke="none"/>
<g opacity="1">
<use fill="#517968" fill-rule="nonzero" opacity="1" stroke="none" xlink:href="#Fill_2"/>
<clipPath id="ClipPath_2">
<use xlink:href="#Fill_2"/>
</clipPath>
<g clip-path="url(#ClipPath_2)">
<path d="M1760.1 2663.81L1899.6 2663.81L1899.6 2857.26L1760.1 2857.26L1760.1 2663.81Z" fill="#c94d8d" fill-rule="nonzero" opacity="1" stroke="none"/>
</g>
</g>
<g opacity="1">
<use fill="#517968" fill-rule="nonzero" opacity="1" stroke="none" xlink:href="#Fill_3"/>
<clipPath id="ClipPath_3">
<use xlink:href="#Fill_3"/>
</clipPath>
<g clip-path="url(#ClipPath_3)">
<path d="M2045.55 2705.84L2179.17 2705.84L2179.17 2888.82L2045.55 2888.82L2045.55 2705.84Z" fill="#c94d8d" fill-rule="nonzero" opacity="1" stroke="none"/>
</g>
</g>
</g>
</svg>
