<?xml version="1.0" encoding="UTF-8" standalone="no"?>
<!DOCTYPE svg PUBLIC "-//W3C//DTD SVG 1.1//EN" "http://www.w3.org/Graphics/SVG/1.1/DTD/svg11.dtd">
<!-- Created with Vectornator (http://vectornator.io/) -->
<svg height="100%" stroke-miterlimit="10" style="fill-rule:nonzero;clip-rule:evenodd;stroke-linecap:round;stroke-linejoin:round;" version="1.1" viewBox="0 0 3400 1800" width="100%" xml:space="preserve" xmlns="http://www.w3.org/2000/svg" xmlns:vectornator="http://vectornator.io" xmlns:xlink="http://www.w3.org/1999/xlink">
<defs>
<path d="M762.826 1151.52L762.826 1215.42L765.758 1215.42L765.758 1363.81C765.758 1378.02 767.202 1400.81 768.981 1414.72L778.263 1487.29C780.042 1501.19 782.929 1501.19 784.709 1487.29L793.998 1414.72C795.777 1400.81 797.221 1378.02 797.221 1363.81L797.221 1215.42L800.957 1215.42L800.957 1151.52L797.221 1151.52L765.758 1151.52L762.826 1151.52Z" id="tipwithfluid"/>
<path d="M1438.14 1356.45L1438.14 1356.84C1438.14 1366.91 1480.67 1461.21 1480.67 1461.21C1485.08 1470.15 1492.24 1470.15 1496.66 1461.21C1496.66 1461.21 1539.19 1366.91 1539.19 1356.84L1539.19 1356.45L1539.19 1298.98C1539.19 1294.62 1535.83 1291.08 1531.67 1291.08L1445.65 1291.08C1441.5 1291.08 1438.14 1294.62 1438.14 1298.98L1438.14 1356.45Z" id="Fill_2"/>
<path d="M1720.11 1356.45L1720.11 1356.84C1720.11 1366.91 1762.64 1461.21 1762.64 1461.21C1767.06 1470.15 1774.22 1470.15 1778.63 1461.21C1778.63 1461.21 1821.17 1366.91 1821.17 1356.84L1821.17 1356.45L1821.17 1298.98C1821.17 1294.62 1817.8 1291.08 1813.65 1291.08L1727.63 1291.08C1723.48 1291.08 1720.11 1294.62 1720.11 1298.98L1720.11 1356.45Z" id="Fill_3"/>
</defs>
<g id="Layer-1" vectornator:layerName="Layer 1">
  <g opacity="1">
    <path d="M218.392 100.426L3162.78 100.426L3162.78 1616.02L218.392 1616.02L218.392 100.426Z" fill="#6f3a1a" fill-rule="nonzero" opacity="1" stroke="none" id="background" />
    <path d="M11.452 1558.47L3388.55 1558.47L3388.55 1783.8L11.452 1783.8L11.452 1558.47Z" fill="#9d521b" fill-rule="nonzero" opacity="1" stroke="none" id="bottom"/>
    <g id="motorisedarm" opacity="1">
      <path d="M695.843 140.849L736.953 140.849C752.228 140.849 764.61 164.693 764.61 194.105L764.61 846.744C764.61 876.157 752.228 900 736.953 900L695.843 900C680.569 900 668.187 876.157 668.187 846.744L668.187 194.105C668.187 164.693 680.569 140.849 695.843 140.849Z" fill="#002748" fill-rule="nonzero" opacity="1" stroke="none" id="pipetteholder"/>
      <path d="M670.551 128.866C619.046 128.866 577.3 165.176 577.3 209.961L577.3 240.045L577.3 567.421C577.3 612.206 619.045 648.503 670.551 648.503L820.026 648.503C839.989 648.503 859.96 633.727 875.191 604.161L1038.53 251.643C1052.79 220.87 1040.37 178.404 1010.8 156.791L1009.98 156.196C989.329 141.102 950.453 128.866 923.152 128.866L670.551 128.866Z" fill="#002748" fill-rule="nonzero" opacity="1" stroke="none" id="motorarm"/>
    </g>
    <path d="M11.452 16.2014L3388.55 16.2014L3388.55 241.531L11.452 241.531L11.452 16.2014Z" fill="#9d521b" fill-rule="nonzero" opacity="1" stroke="none" id="top"/>
    <path d="M285.265 52.0426L285.265 1639.75L133.44 1639.75L133.44 52.0426L285.265 52.0426Z" fill="#9d521b" fill-rule="nonzero" opacity="1" stroke="none" id="leftwall"/>
    <path d="M3259.8 52.0426L3259.8 1639.75L3107.98 1639.75L3107.98 52.0426L3259.8 52.0426Z" fill="#9d521b" fill-rule="nonzero" opacity="1" stroke="none" id="rightwall"/>
  </g>
  <g opacity="1" id="tubepalette1" >
    <path d="M1517.8 1467.92L1616.78 1467.92L1616.78 1558.47L1517.8 1558.47L1517.8 1467.92Z" fill="#c9b09a" fill-rule="nonzero" opacity="1" stroke="none" id="tubepallete1-foot-right" />
    <path d="M925.047 1467.92L1024.03 1467.92L1024.03 1558.47L925.047 1558.47L925.047 1467.92Z" fill="#c9b09a" fill-rule="nonzero" opacity="1" stroke="none" id="tubepallete1-foot-left"/>
    <path d="M974.538 1312.11L1552.11 1312.11L1552.11 1488.95L974.538 1488.95L974.538 1312.11Z" fill="#7cc9bf" fill-rule="nonzero" opacity="1" stroke="none" id="tubepalette1-plate"/>
    <g opacity="1">
      <path d="M985.181 1356.45L985.181 1356.84C985.181 1366.91 1027.71 1461.21 1027.71 1461.21C1032.13 1470.15 1039.29 1470.15 1043.7 1461.21C1043.7 1461.21 1086.23 1366.91 1086.23 1356.84L1086.23 1356.45L1086.23 1298.98C1086.23 1294.62 1082.87 1291.08 1078.72 1291.08L992.696 1291.08C988.545 1291.08 985.181 1294.62 985.181 1298.98L985.181 1356.45Z" fill="#517968" fill-rule="nonzero" opacity="1" stroke="none" id="tube1" />
      <path d="M1098.42 1356.45L1098.42 1356.84C1098.42 1366.91 1140.95 1461.21 1140.95 1461.21C1145.37 1470.15 1152.52 1470.15 1156.94 1461.21C1156.94 1461.21 1199.47 1366.91 1199.47 1356.84L1199.47 1356.45L1199.47 1298.98C1199.47 1294.62 1196.11 1291.08 1191.96 1291.08L1105.94 1291.08C1101.78 1291.08 1098.42 1294.62 1098.42 1298.98L1098.42 1356.45Z" fill="#517968" fill-rule="nonzero" opacity="1" stroke="none" id="tube2" />
      <path d="M1211.66 1356.45L1211.66 1356.84C1211.66 1366.91 1254.19 1461.21 1254.19 1461.21C1258.61 1470.15 1265.76 1470.15 1270.18 1461.21C1270.18 1461.21 1312.71 1366.91 1312.71 1356.84L1312.71 1356.45L1312.71 1298.98C1312.71 1294.62 1309.35 1291.08 1305.2 1291.08L1219.17 1291.08C1215.02 1291.08 1211.66 1294.62 1211.66 1298.98L1211.66 1356.45Z" fill="#517968" fill-rule="nonzero" opacity="1" stroke="none" id="tube3" />
      <path d="M1324.9 1356.45L1324.9 1356.84C1324.9 1366.91 1367.43 1461.21 1367.43 1461.21C1371.84 1470.15 1379 1470.15 1383.42 1461.21C1383.42 1461.21 1425.95 1366.91 1425.95 1356.84L1425.95 1356.45L1425.95 1298.98C1425.95 1294.62 1422.59 1291.08 1418.44 1291.08L1332.41 1291.08C1328.26 1291.08 1324.9 1294.62 1324.9 1298.98L1324.9 1356.45Z" fill="#517968" fill-rule="nonzero" opacity="1" stroke="none" id="tube4" />
      <path d="M1438.14 1356.45L1438.14 1356.84C1438.14 1366.91 1480.67 1461.21 1480.67 1461.21C1485.08 1470.15 1492.24 1470.15 1496.66 1461.21C1496.66 1461.21 1539.19 1366.91 1539.19 1356.84L1539.19 1356.45L1539.19 1298.98C1539.19 1294.62 1535.83 1291.08 1531.67 1291.08L1445.65 1291.08C1441.5 1291.08 1438.14 1294.62 1438.14 1298.98L1438.14 1356.45Z" fill="#517968" fill-rule="nonzero" opacity="1" stroke="none" id="tube5" />
    </g>
  </g>
  <g opacity="1" id="tubepalette2">
    <path d="M2252.73 1467.92L2351.71 1467.92L2351.71 1558.47L2252.73 1558.47L2252.73 1467.92Z" fill="#c9b09a" fill-rule="nonzero" opacity="1" stroke="none" id="tubepalette2-foot-right" />
    <path d="M1659.98 1467.92L1758.96 1467.92L1758.96 1558.47L1659.98 1558.47L1659.98 1467.92Z" fill="#c9b09a" fill-rule="nonzero" opacity="1" stroke="none" id="tubepalette2-foot-left" />
    <path d="M1709.47 1312.11L2287.04 1312.11L2287.04 1488.95L1709.47 1488.95L1709.47 1312.11Z" fill="#7cc9bf" fill-rule="nonzero" opacity="1" stroke="none" id="tubepalette2-plate" />
    <g opacity="1">
      <path d="M1833.35 1356.45L1833.35 1356.84C1833.35 1366.91 1875.88 1461.21 1875.88 1461.21C1880.3 1470.15 1887.46 1470.15 1891.87 1461.21C1891.87 1461.21 1934.41 1366.91 1934.41 1356.84L1934.41 1356.45L1934.41 1298.98C1934.41 1294.62 1931.04 1291.08 1926.89 1291.08L1840.87 1291.08C1836.72 1291.08 1833.35 1294.62 1833.35 1298.98L1833.35 1356.45Z" fill="#517968" fill-rule="nonzero" opacity="1" stroke="none" id="tube7" />
      <path d="M1946.59 1356.45L1946.59 1356.84C1946.59 1366.91 1989.12 1461.21 1989.12 1461.21C1993.54 1470.15 2000.7 1470.15 2005.11 1461.21C2005.11 1461.21 2047.64 1366.91 2047.64 1356.84L2047.64 1356.45L2047.64 1298.98C2047.64 1294.62 2044.28 1291.08 2040.13 1291.08L1954.11 1291.08C1949.96 1291.08 1946.59 1294.62 1946.59 1298.98L1946.59 1356.45Z" fill="#517968" fill-rule="nonzero" opacity="1" stroke="none" id="tube8" />
      <path d="M2059.83 1356.45L2059.83 1356.84C2059.83 1366.91 2102.36 1461.21 2102.36 1461.21C2106.78 1470.15 2113.94 1470.15 2118.35 1461.21C2118.35 1461.21 2160.88 1366.91 2160.88 1356.84L2160.88 1356.45L2160.88 1298.98C2160.88 1294.62 2157.52 1291.08 2153.37 1291.08L2067.35 1291.08C2063.2 1291.08 2059.83 1294.62 2059.83 1298.98L2059.83 1356.45Z" fill="#517968" fill-rule="nonzero" opacity="1" stroke="none" id="tube9" />
      <path d="M2173.07 1356.45L2173.07 1356.84C2173.07 1366.91 2215.6 1461.21 2215.6 1461.21C2220.02 1470.15 2227.18 1470.15 2231.59 1461.21C2231.59 1461.21 2274.12 1366.91 2274.12 1356.84L2274.12 1356.45L2274.12 1298.98C2274.12 1294.62 2270.76 1291.08 2266.61 1291.08L2180.59 1291.08C2176.44 1291.08 2173.07 1294.62 2173.07 1298.98L2173.07 1356.45Z" fill="#517968" fill-rule="nonzero" opacity="1" stroke="none" id="tube10" />
    </g>
  </g>
  <g opacity="1" id="tipholder">
    <path d="M285.272 1214.39L877.29 1214.39L877.29 1558.47L285.272 1558.47L285.272 1214.39Z" fill="#b1935d" fill-rule="nonzero" opacity="1" stroke="none" id="tipholder-background"/>
    <g opacity="1" id="tipholder-tips-back">
      <path d="M387.127 1151.52L387.127 1215.42L390.059 1215.42L390.059 1363.81C390.059 1378.02 391.503 1400.81 393.282 1414.72L402.564 1487.29C404.343 1501.19 407.23 1501.19 409.01 1487.29L418.299 1414.72C420.078 1400.81 421.522 1378.02 421.522 1363.81L421.522 1215.42L425.258 1215.42L425.258 1151.52L421.522 1151.52L390.059 1151.52L387.127 1151.52Z" fill="#058785" fill-rule="nonzero" opacity="1" stroke="none" id="tip1"/>
      <path d="M437.28 1151.52L437.28 1215.42L440.212 1215.42L440.212 1363.81C440.212 1378.02 441.656 1400.81 443.435 1414.72L452.716 1487.29C454.495 1501.19 457.383 1501.19 459.163 1487.29L468.451 1414.72C470.231 1400.81 471.675 1378.02 471.675 1363.81L471.675 1215.42L475.411 1215.42L475.411 1151.52L471.675 1151.52L440.212 1151.52L437.28 1151.52Z" fill="#058785" fill-rule="nonzero" opacity="1" stroke="none" id="tip2"/>
      <path d="M487.432 1151.52L487.432 1215.42L490.364 1215.42L490.364 1363.81C490.364 1378.02 491.809 1400.81 493.588 1414.72L502.869 1487.29C504.648 1501.19 507.536 1501.19 509.316 1487.29L518.604 1414.72C520.384 1400.81 521.827 1378.02 521.827 1363.81L521.827 1215.42L525.564 1215.42L525.564 1151.52L521.827 1151.52L490.364 1151.52L487.432 1151.52Z" fill="#058785" fill-rule="nonzero" opacity="1" stroke="none" id="tip3"/>
      <path d="M537.585 1151.52L537.585 1215.42L540.517 1215.42L540.517 1363.81C540.517 1378.02 541.962 1400.81 543.741 1414.72L553.022 1487.29C554.801 1501.19 557.689 1501.19 559.469 1487.29L568.757 1414.72C570.537 1400.81 571.98 1378.02 571.98 1363.81L571.98 1215.42L575.716 1215.42L575.716 1151.52L571.98 1151.52L540.517 1151.52L537.585 1151.52Z" fill="#058785" fill-rule="nonzero" opacity="1" stroke="none" id="tip4"/>
      <path d="M587.738 1151.52L587.738 1215.42L590.67 1215.42L590.67 1363.81C590.67 1378.02 592.114 1400.81 593.893 1414.72L603.175 1487.29C604.954 1501.19 607.842 1501.19 609.621 1487.29L618.91 1414.72C620.69 1400.81 622.133 1378.02 622.133 1363.81L622.133 1215.42L625.869 1215.42L625.869 1151.52L622.133 1151.52L590.67 1151.52L587.738 1151.52Z" fill="#058785" fill-rule="nonzero" opacity="1" stroke="none" id="tip5"/>
      <path d="M637.891 1151.52L637.891 1215.42L640.823 1215.42L640.823 1363.81C640.823 1378.02 642.267 1400.81 644.046 1414.72L653.328 1487.29C655.107 1501.19 657.994 1501.19 659.774 1487.29L669.063 1414.72C670.842 1400.81 672.286 1378.02 672.286 1363.81L672.286 1215.42L676.022 1215.42L676.022 1151.52L672.286 1151.52L640.823 1151.52L637.891 1151.52Z" fill="#058785" fill-rule="nonzero" opacity="1" stroke="none" id="tip6"/>
      <path d="M688.044 1151.52L688.044 1215.42L690.976 1215.42L690.976 1363.81C690.976 1378.02 692.42 1400.81 694.199 1414.72L703.48 1487.29C705.259 1501.19 708.147 1501.19 709.927 1487.29L719.215 1414.72C720.995 1400.81 722.439 1378.02 722.439 1363.81L722.439 1215.42L726.175 1215.42L726.175 1151.52L722.439 1151.52L690.976 1151.52L688.044 1151.52Z" fill="#058785" fill-rule="nonzero" opacity="1" stroke="none" id="tip7"/>
      <path d="M738.196 1151.52L738.196 1215.42L741.129 1215.42L741.129 1363.81C741.129 1378.02 742.573 1400.81 744.352 1414.72L753.633 1487.29C755.412 1501.19 758.3 1501.19 760.08 1487.29L769.368 1414.72C771.148 1400.81 772.591 1378.02 772.591 1363.81L772.591 1215.42L776.328 1215.42L776.328 1151.52L772.591 1151.52L741.129 1151.52L738.196 1151.52Z" fill="#058785" fill-rule="nonzero" opacity="1" stroke="none" id="tip8"/>
      <path d="M788.349 1151.52L788.349 1215.42L791.281 1215.42L791.281 1363.81C791.281 1378.02 792.726 1400.81 794.505 1414.72L803.786 1487.29C805.565 1501.19 808.453 1501.19 810.233 1487.29L819.521 1414.72C821.301 1400.81 822.744 1378.02 822.744 1363.81L822.744 1215.42L826.48 1215.42L826.48 1151.52L822.744 1151.52L791.281 1151.52L788.349 1151.52Z" fill="#058785" fill-rule="nonzero" opacity="1" stroke="none" id="tip9"/>
    </g>
    <g opacity="1" id="tipholder-tips-front">
      <path d="M361.603 1151.52L361.603 1215.42L364.535 1215.42L364.535 1363.81C364.535 1378.02 365.98 1400.81 367.759 1414.72L377.04 1487.29C378.819 1501.19 381.707 1501.19 383.487 1487.29L392.775 1414.72C394.555 1400.81 395.998 1378.02 395.998 1363.81L395.998 1215.42L399.735 1215.42L399.735 1151.52L395.998 1151.52L364.535 1151.52L361.603 1151.52Z" fill="#7cc9bf" fill-rule="nonzero" opacity="1" stroke="none" id="tip10" />
      <path d="M411.756 1151.52L411.756 1215.42L414.688 1215.42L414.688 1363.81C414.688 1378.02 416.132 1400.81 417.911 1414.72L427.193 1487.29C428.972 1501.19 431.86 1501.19 433.639 1487.29L442.928 1414.72C444.708 1400.81 446.151 1378.02 446.151 1363.81L446.151 1215.42L449.887 1215.42L449.887 1151.52L446.151 1151.52L414.688 1151.52L411.756 1151.52Z" fill="#7cc9bf" fill-rule="nonzero" opacity="1" stroke="none" id="tip11" />
      <path d="M461.909 1151.52L461.909 1215.42L464.841 1215.42L464.841 1363.81C464.841 1378.02 466.285 1400.81 468.064 1414.72L477.346 1487.29C479.125 1501.19 482.012 1501.19 483.792 1487.29L493.081 1414.72C494.861 1400.81 496.304 1378.02 496.304 1363.81L496.304 1215.42L500.04 1215.42L500.04 1151.52L496.304 1151.52L464.841 1151.52L461.909 1151.52Z" fill="#7cc9bf" fill-rule="nonzero" opacity="1" stroke="none" id="tip12" />
      <path d="M512.062 1151.52L512.062 1215.42L514.994 1215.42L514.994 1363.81C514.994 1378.02 516.438 1400.81 518.217 1414.72L527.499 1487.29C529.278 1501.19 532.165 1501.19 533.945 1487.29L543.234 1414.72C545.013 1400.81 546.457 1378.02 546.457 1363.81L546.457 1215.42L550.193 1215.42L550.193 1151.52L546.457 1151.52L514.994 1151.52L512.062 1151.52Z" fill="#7cc9bf" fill-rule="nonzero" opacity="1" stroke="none" id="tip13" />
      <path d="M562.215 1151.52L562.215 1215.42L565.147 1215.42L565.147 1363.81C565.147 1378.02 566.591 1400.81 568.37 1414.72L577.651 1487.29C579.43 1501.19 582.318 1501.19 584.098 1487.29L593.386 1414.72C595.166 1400.81 596.61 1378.02 596.61 1363.81L596.61 1215.42L600.346 1215.42L600.346 1151.52L596.61 1151.52L565.147 1151.52L562.215 1151.52Z" fill="#7cc9bf" fill-rule="nonzero" opacity="1" stroke="none" id="tip14" />
      <path d="M612.367 1151.52L612.367 1215.42L615.299 1215.42L615.299 1363.81C615.299 1378.02 616.744 1400.81 618.523 1414.72L627.804 1487.29C629.583 1501.19 632.471 1501.19 634.251 1487.29L643.539 1414.72C645.319 1400.81 646.762 1378.02 646.762 1363.81L646.762 1215.42L650.499 1215.42L650.499 1151.52L646.762 1151.52L615.299 1151.52L612.367 1151.52Z" fill="#7cc9bf" fill-rule="nonzero" opacity="1" stroke="none" id="tip15" />
      <path d="M662.52 1151.52L662.52 1215.42L665.452 1215.42L665.452 1363.81C665.452 1378.02 666.897 1400.81 668.676 1414.72L677.957 1487.29C679.736 1501.19 682.624 1501.19 684.404 1487.29L693.692 1414.72C695.472 1400.81 696.915 1378.02 696.915 1363.81L696.915 1215.42L700.651 1215.42L700.651 1151.52L696.915 1151.52L665.452 1151.52L662.52 1151.52Z" fill="#7cc9bf" fill-rule="nonzero" opacity="1" stroke="none" id="tip16" />
      <path d="M712.673 1151.52L712.673 1215.42L715.605 1215.42L715.605 1363.81C715.605 1378.02 717.049 1400.81 718.828 1414.72L728.11 1487.29C729.889 1501.19 732.777 1501.19 734.556 1487.29L743.845 1414.72C745.625 1400.81 747.068 1378.02 747.068 1363.81L747.068 1215.42L750.804 1215.42L750.804 1151.52L747.068 1151.52L715.605 1151.52L712.673 1151.52Z" fill="#7cc9bf" fill-rule="nonzero" opacity="1" stroke="none" id="tip17" />
    </g>
    <g opacity="1" id="tipwithfluid-group">
      <use fill="#7cc9bf" fill-rule="nonzero" opacity="1" stroke="none" xlink:href="#tipwithfluid"/>
      <clipPath id="ClipPath">
      <use xlink:href="#tipwithfluid"/>
      </clipPath>
      <g clip-path="url(#ClipPath)">
        <path d="M749.79 1404.15L826.494 1404.15L826.494 1612.39L749.79 1612.39L749.79 1404.15Z" fill="#c94d8d" fill-rule="nonzero" opacity="1" stroke="none" id="fluidintip" />
      </g>
    </g>
    <path d="M285.265 1214.39L285.265 1558.47L877.296 1558.47L877.296 1214.39L285.265 1214.39ZM363.733 1267.33L836.733 1267.33L836.733 1512.97L363.733 1512.97L363.733 1267.33Z" fill="#bda27c" fill-rule="nonzero" opacity="1" stroke="none" id="tipholder-front" />
  </g>
  <path d="M2434.25 1164.05L2434.25 1218.31L2399.17 1218.31L2399.17 1331.75L2434.25 1331.75L2434.25 1558.47L2525.63 1558.47L2525.63 1308.58L2601.58 1308.58L2601.58 1558.47L3053.59 1558.47L3053.59 1164.05L2601.58 1164.05L2601.58 1259.71L2525.63 1259.71L2525.63 1164.05L2434.25 1164.05Z" fill="#c9b09a" fill-rule="nonzero" opacity="1" stroke="none" id="tip-dropoff"/>
  <g opacity="1" id="tubewithfluid-out">
    <use fill="#517968" fill-rule="nonzero" opacity="1" stroke="none" xlink:href="#Fill_2"/>
    <clipPath id="ClipPath_2">
    <use xlink:href="#Fill_2"/>
    </clipPath>
    <g clip-path="url(#ClipPath_2)">
      <path d="M1414.54 1392.39L1554.05 1392.39L1554.05 1585.84L1414.54 1585.84L1414.54 1392.39Z" fill="#c94d8d" fill-rule="nonzero" opacity="1" stroke="none" id="tubewithfluid-out-path"/>
    </g>
  </g>
  <g opacity="1" id="tubewithfluid-in" >
    <use fill="#517968" fill-rule="nonzero" opacity="1" stroke="none" xlink:href="#Fill_3"/>
    <clipPath id="ClipPath_3">
    <use xlink:href="#Fill_3"/>
    </clipPath>
    <g clip-path="url(#ClipPath_3)">
      <path d="M1700 1434.42L1833.61 1434.42L1833.61 1617.4L1700 1617.4L1700 1434.42Z" fill="#c94d8d" fill-rule="nonzero" opacity="1" stroke="none" id="tubewithfluid-in-path" />
    </g>
  </g>
</g>


<!-- ************ -->
<!--              -->
<!--  animations  -->
<!--              -->
<!-- ************ -->

<!-- tipholder animations -->
<animateTransform
  id="gototip"
  xlink:href="#motorisedarm"
  attributeName="transform"
  type="translate"
  begin="0.5s"
  dur="1s"
  from="0 0"
  to="62 0"
  fill="freeze"
/>
<animateTransform
  id="pickup-tip-drop"
  xlink:href="#pipetteholder"
  attributeName="transform"
  type="translate"
  begin="gototip.end+0.5s"
  dur="1s"
  from="0 0"
  to="0 260"
  fill="freeze"
/>
<animateTransform
  id="pickup-tip-lift"
  xlink:href="#pipetteholder"
  attributeName="transform"
  type="translate"
  begin="pickup-tip-drop.end+0.5s"
  dur="1s"
  from="0 260"
  to="0 0"
  fill="freeze"
/>
<animateTransform
  id="gototakein"
  xlink:href="#motorisedarm"
  attributeName="transform"
  type="translate"
  begin="pickup-tip-lift.end+0.5s"
  dur="2s"
  from="62 0"
  to="770 0"
  fill="freeze"
/>
<animateTransform
  id="takein-drop"
  xlink:href="#pipetteholder"
  attributeName="transform"
  type="translate"
  begin="gototakein.end+0.5s"
  dur="1s"
  from="0 0"
  to="0 200"
  fill="freeze"
/>
<animateTransform
  id="takein-lift"
  xlink:href="#pipetteholder"
  attributeName="transform"
  type="translate"
  begin="takein-drop.end+1.5s"
  dur="1s"
  from="0 200"
  to="0 0"
  fill="freeze"
/>
<animateTransform
  id="gotoinsert"
  xlink:href="#motorisedarm"
  attributeName="transform"
  type="translate"
  begin="takein-lift.end+0.5s"
  dur="1s"
  from="770 0"
  to="1060 0"
  fill="freeze"
/>
<animateTransform
  id="insert-drop"
  xlink:href="#pipetteholder"
  attributeName="transform"
  type="translate"
  begin="gotoinsert.end+0.5s"
  dur="1s"
  from="0 0"
  to="0 200"
  fill="freeze"
/>
<animateTransform
  id="insert-lift"
  xlink:href="#pipetteholder"
  attributeName="transform"
  type="translate"
  begin="insert-drop.end+1.5s"
  dur="1s"
  from="0 200"
  to="0 0"
  fill="freeze"
/>
<animateTransform
  id="gotodropoff"
  xlink:href="#motorisedarm"
  attributeName="transform"
  type="translate"
  begin="insert-lift.end+0.5s"
  dur="1.8s"
  from="1060 0"
  to="1772 0"
  fill="freeze"
/>
<animateTransform
  id="dropoff-drop"
  xlink:href="#pipetteholder"
  attributeName="transform"
  type="translate"
  begin="gotodropoff.end+0.5s"
  dur="0.5s"
  from="0 0"
  to="0 120"
  fill="freeze"
/>
<animateTransform
  id="dropoff-move"
  xlink:href="#motorisedarm"
  attributeName="transform"
  type="translate"
  begin="dropoff-drop.end+1.0s"
  dur="1s"
  from="1772 0"
  to="1872 0"
  fill="freeze"
/>
<animateTransform
  id="dropoff-lift"
  xlink:href="#pipetteholder"
  attributeName="transform"
  type="translate"
  begin="dropoff-move.end+0.5s"
  dur="0.5s"
  from="0 120"
  to="0 0"
  fill="freeze"
/>
<animateTransform
  id="returntostart"
  xlink:href="#motorisedarm"
  attributeName="transform"
  type="translate"
  begin="dropoff-lift.end+0.5s"
  dur="4s"
  from="1872 0"
  to="0 0"
  fill="freeze"
/>
<!-- end tipholder animations -->
<!-- motor animations -->
<!-- end motor animations -->
<!-- tip animations -->
<animateTransform
  id="pickup-tip"
  xlink:href="#tipwithfluid-group"
  attributeName="transform"
  type="translate"
  begin="pickup-tip-drop.end+0.5s"
  dur="1s"
  from="0 0"
  to="0 -265"
  fill="freeze"
/>
<animateTransform
  id="movetiptotakein"
  xlink:href="#tipwithfluid-group"
  attributeName="transform"
  type="translate"
  begin="pickup-tip-lift.end+0.5s"
  dur="2s"
  from="0 -265"
  to="704 -265"
  fill="freeze"
/>
<animateTransform
  id="tipdroptotakein"
  xlink:href="#tipwithfluid-group"
  attributeName="transform"
  type="translate"
  begin="gototakein.end+0.5s"
  dur="1s"
  from="704 -265"
  to="704 -65"
  fill="freeze"
/>
<animateTransform
  id="tiplifttotakein"
  xlink:href="#tipwithfluid-group"
  attributeName="transform"
  type="translate"
  begin="takein-drop.end+1.5s"
  dur="1s"
  from="704 -65"
  to="704 -265"
  fill="freeze"
/>
<animateTransform
  id="tipmovetoinsert"
  xlink:href="#tipwithfluid-group"
  attributeName="transform"
  type="translate"
  begin="takein-lift.end+0.5s"
  dur="1s"
  from="704 -265"
  to="994 -265"
  fill="freeze"
/>
<animateTransform
  id="tipinsertdrop"
  xlink:href="#tipwithfluid-group"
  attributeName="transform"
  type="translate"
  begin="gotoinsert.end+0.5s"
  dur="1s"
  from="994 -265"
  to="994 -65"
  fill="freeze"
/>
<animateTransform
  id="tipinsertlift"
  xlink:href="#tipwithfluid-group"
  attributeName="transform"
  type="translate"
  begin="insert-drop.end+1.5s"
  dur="1s"
  from="994 -65"
  to="994 -265"
  fill="freeze"
/>
<animateTransform
  id="tipmovetodropoff"
  xlink:href="#tipwithfluid-group"
  attributeName="transform"
  type="translate"
  begin="insert-lift.end+0.5s"
  dur="1.8s"
  from="994 -265"
  to="1706 -265"
  fill="freeze"
/>
<animateTransform
  id="tipdropoffdrop"
  xlink:href="#tipwithfluid-group"
  attributeName="transform"
  type="translate"
  begin="gotodropoff.end+0.5s"
  dur="0.5s"
  from="1706 -265"
  to="1706 -145"
  fill="freeze"
/>
<animateTransform
  id="tipremoval"
  xlink:href="#tipwithfluid"
  attributeName="transform"
  type="rotate"
  begin="dropoff-drop.end+1.0s"
  dur="1s"
  from="0 500 1300"
  to="50 500 1500"
  fill="freeze"
/>
<animateTransform
  id="tipmovestotrashbox"
  xlink:href="#tipwithfluid-group"
  attributeName="transform"
  type="translate"
  begin="dropoff-drop.end+1.0s"
  dur="1.5s"
  from="1706 -265"
  to="1906 -145"
  fill="freeze"
/>
<animate
  id="tipturnsinvisible"
  xlink:href="#tipwithfluid-group"
  attributeName="visibility"
  begin="dropoff-drop.end+1.0s"
  dur="1s"
  from="visible"
  to="hidden"
  fill="freeze"
/>
</svg>
